<?xml version="1.0" encoding="UTF-8"?>
<svg width="1024px" height="1024px" viewBox="0 0 1024 1024" version="1.1" xmlns="http://www.w3.org/2000/svg" xmlns:xlink="http://www.w3.org/1999/xlink">
    <!-- Generator: Sketch 63.1 (92452) - https://sketch.com -->
    <title>xN</title>
    <desc>Created with Sketch.</desc>
    <g id="xN" stroke="none" stroke-width="1" fill="none" fill-rule="evenodd">
        <rect fill="#FFFFFF" x="0" y="0" width="1024" height="1024"></rect>
        <rect id="Background" x="0" y="0" width="1024" height="1024"></rect>
        <g id="Group" transform="translate(251.000000, 178.000000)" fill="#000000" fill-rule="nonzero">
            <path d="M124.125,270.6875 L124.125,419.375 L124.125,419.375 C124.125,432.5 113.5,443.75 99.75,443.75 C86.75625,443.75 76.21275,432.723875 76.0031794,419.768178 L76,419.375 L76,270.6875 C76,257.398148 86.7731482,246.625 100.0625,246.625 C113.351852,246.625 124.125,257.398148 124.125,270.6875 Z M107.25,1.25 C118.153846,1.25 124.947781,6.5341716 131.615257,14.8262563 L132.25,15.625 L396.981539,353.235574 C397.151933,353.452877 397.466223,353.490904 397.683526,353.320509 C397.804399,353.225729 397.875,353.08065 397.875,352.927048 L397.875,270.6875 C397.875,257.398148 408.648148,246.625 421.9375,246.625 C435.226852,246.625 446,257.398148 446,270.6875 L446,419.375 L446,419.375 C446,432.36875 436.811563,442.299688 423.892619,442.5 L423.5,442.5 L421,442.5 C410.541016,442.5 403.110138,436.443787 395.726574,427.908311 L395.375,427.5 L125.018872,81.7680855 C124.848768,81.5505559 124.534529,81.51211 124.316999,81.6822143 C124.195815,81.7769777 124.125,81.9222503 124.125,82.0760865 L124.125,174.5625 C124.125,187.851852 113.351852,198.625 100.0625,198.625 C86.7731482,198.625 76,187.851852 76,174.5625 L76,25.625 L76,25.625 C76,12.63125 87.026125,1.4751875 99.9818219,1.25 L100.375,1.25 L107.25,1.25 Z M422.25,0 C435.24375,0 445.78725,11.026125 445.996821,23.9818219 L446,24.375 L446,174.5625 C446,187.851852 435.226852,198.625 421.9375,198.625 C408.648148,198.625 397.875,187.851852 397.875,174.5625 L397.875,24.375 L397.875,24.375 C397.875,11.38125 408.288563,0.2251875 421.838445,0.003365625 L422.25,0 Z" id="Shape"></path>
            <text id="xnav" font-family="GothamRounded-Book, Gotham Rounded" font-size="200" font-weight="300" letter-spacing="17.1428571">
                <tspan x="0.489285714" y="654">xnav</tspan>
            </text>
        </g>
    </g>
</svg>