<?xml version="1.0" encoding="UTF-8"?>
<svg width="1024px" height="1024px" viewBox="0 0 1024 1024" version="1.1" xmlns="http://www.w3.org/2000/svg" xmlns:xlink="http://www.w3.org/1999/xlink">
    <!-- Generator: Sketch 63.1 (92452) - https://sketch.com -->
    <title>xN</title>
    <desc>Created with Sketch.</desc>
    <defs>
        <path d="M95.4892857,655 C99.4892857,655 102.689286,652 102.689286,647.8 C102.689286,645.8 101.889286,644 100.489286,642.2 L66.8892857,601 L99.0892857,561.6 C100.289286,560.2 101.089286,558.6 101.089286,556.6 C101.089286,552.6 98.0892857,549.6 94.0892857,549.6 C91.2892857,549.6 89.2892857,551.2 87.4892857,553.4 L57.8892857,591 L28.0892857,553.2 C26.2892857,551 24.2892857,549.6 21.2892857,549.6 C17.2892857,549.6 14.0892857,552.4 14.0892857,556.8 C14.0892857,558.8 14.8892857,560.6 16.4892857,562.4 L48.2892857,601.4 L14.4892857,643 C13.0892857,644.4 12.4892857,646 12.4892857,648 C12.4892857,651.8 15.4892857,655 19.4892857,655 C22.2892857,655 24.2892857,653.4 26.0892857,651.2 L57.2892857,611.6 L88.6892857,651.4 C90.4892857,653.6 92.4892857,655 95.4892857,655 Z M231.832143,655 C236.032143,655 239.432143,651.6 239.432143,647.2 L239.432143,589.8 C239.432143,565.2 224.832143,548.4 199.832143,548.4 C182.032143,548.4 171.232143,557.4 164.432143,568.6 L164.432143,557.4 C164.432143,553 161.032143,549.6 156.632143,549.6 C152.432143,549.6 149.032143,553.2 149.032143,557.4 L149.032143,647.2 C149.032143,651.6 152.432143,655 156.832143,655 C161.232143,655 164.432143,651.6 164.432143,647.2 L164.432143,594.8 C164.432143,575.4 177.632143,562.4 195.432143,562.4 C213.632143,562.4 224.032143,574.4 224.032143,593.6 L224.032143,647.2 C224.032143,651.6 227.432143,655 231.832143,655 Z M320.175,656.2 C338.375,656.2 350.375,647.8 357.575,638.4 L357.575,647.8 C357.575,651.8 360.575,655 364.975,655 C369.175,655 372.375,651.8 372.375,647.4 L372.375,590.8 C372.375,577.6 368.775,567.6 361.775,560.6 C354.175,553 342.975,549.2 328.375,549.2 C315.175,549.2 304.775,551.8 294.575,556.2 C292.575,557 290.375,559.4 290.375,562.6 C290.375,566.2 293.575,569.2 297.175,569.2 C297.975,569.2 298.975,569 299.975,568.6 C307.575,565.2 316.375,562.8 326.775,562.8 C346.175,562.8 357.575,572.4 357.575,591 L357.575,594.6 C348.375,592 338.975,590.2 325.775,590.2 C299.575,590.2 281.575,601.8 281.575,623.6 L281.575,624 C281.575,645.2 300.975,656.2 320.175,656.2 Z M323.175,644 C309.175,644 297.175,636.4 297.175,623.4 L297.175,623 C297.175,610 307.975,601.6 327.375,601.6 C339.975,601.6 350.175,603.8 357.775,606 L357.775,616 C357.775,632.4 342.175,644 323.175,644 Z M460.117857,655.6 C464.317857,655.6 466.917857,653 468.717857,649 L507.717857,561 C508.117857,560 508.517857,558.6 508.517857,557.2 C508.517857,553 505.117857,549.6 500.917857,549.6 C496.917857,549.6 494.717857,552.2 493.717857,555.2 L459.717857,636.4 L426.317857,555.6 C425.117857,552.2 422.917857,549.6 418.517857,549.6 C414.117857,549.6 410.717857,553.2 410.717857,557.2 C410.717857,558.6 411.317857,560 411.717857,561.4 L450.517857,649 C452.317857,653 455.117857,655.6 459.317857,655.6 L460.117857,655.6 Z" id="path-1"></path>
    </defs>
    <g id="xN" stroke="none" stroke-width="1" fill="none" fill-rule="evenodd">
        <rect id="Background" x="0" y="0" width="1024" height="1024"></rect>
        <g id="Group" transform="translate(251.000000, 178.000000)" fill="#000000" fill-rule="nonzero">
            <path d="M124.125,270.6875 L124.125,419.375 L124.125,419.375 C124.125,432.5 113.5,443.75 99.75,443.75 C86.75625,443.75 76.21275,432.723875 76.0031794,419.768178 L76,419.375 L76,270.6875 C76,257.398148 86.7731482,246.625 100.0625,246.625 C113.351852,246.625 124.125,257.398148 124.125,270.6875 Z M107.25,1.25 C118.153846,1.25 124.947781,6.5341716 131.615257,14.8262563 L132.25,15.625 L396.981539,353.235574 C397.151933,353.452877 397.466223,353.490904 397.683526,353.320509 C397.804399,353.225729 397.875,353.08065 397.875,352.927048 L397.875,270.6875 C397.875,257.398148 408.648148,246.625 421.9375,246.625 C435.226852,246.625 446,257.398148 446,270.6875 L446,419.375 L446,419.375 C446,432.36875 436.811563,442.299688 423.892619,442.5 L423.5,442.5 L421,442.5 C410.541016,442.5 403.110138,436.443787 395.726574,427.908311 L395.375,427.5 L125.018872,81.7680855 C124.848768,81.5505559 124.534529,81.51211 124.316999,81.6822143 C124.195815,81.7769777 124.125,81.9222503 124.125,82.0760865 L124.125,174.5625 C124.125,187.851852 113.351852,198.625 100.0625,198.625 C86.7731482,198.625 76,187.851852 76,174.5625 L76,25.625 L76,25.625 C76,12.63125 87.026125,1.4751875 99.9818219,1.25 L100.375,1.25 L107.25,1.25 Z M422.25,0 C435.24375,0 445.78725,11.026125 445.996821,23.9818219 L446,24.375 L446,174.5625 C446,187.851852 435.226852,198.625 421.9375,198.625 C408.648148,198.625 397.875,187.851852 397.875,174.5625 L397.875,24.375 L397.875,24.375 C397.875,11.38125 408.288563,0.2251875 421.838445,0.003365625 L422.25,0 Z" id="Shape"></path>
            <g id="xnav">
                <use xlink:href="#path-1"></use>
                <use xlink:href="#path-1"></use>
            </g>
        </g>
    </g>
</svg>