<svg width="9292" height="3600" viewBox="0 0 9292 3600" fill="none" xmlns="http://www.w3.org/2000/svg">
<g clip-path="url(#clip0_124_2)">
<rect x="2099.62" y="1144.94" width="159.208" height="1325.46" rx="79.6042" fill="black"/>
<rect x="2964.39" y="1144.64" width="159.208" height="1315.43" rx="79.6042" fill="black"/>
<rect x="1785.04" y="1881.52" width="159.208" height="1632.37" rx="79.6042" transform="rotate(-90 1785.04 1881.52)" fill="url(#paint0_linear_124_2)"/>
<rect x="2072.52" y="1209.65" width="159.208" height="1589.56" rx="79.6042" transform="rotate(-36.5 2072.52 1209.65)" fill="black"/>
<path d="M3960.8 2153.8C3960.8 2182.4 3982.9 2204.5 4011.5 2204.5C4040.1 2204.5 4060.9 2182.4 4060.9 2153.8V1813.2C4060.9 1687.1 4146.7 1602.6 4262.4 1602.6C4380.7 1602.6 4448.3 1680.6 4448.3 1805.4V2153.8C4448.3 2182.4 4470.4 2204.5 4499 2204.5C4526.3 2204.5 4548.4 2182.4 4548.4 2153.8V1780.7C4548.4 1620.8 4453.5 1511.6 4291 1511.6C4175.3 1511.6 4105.1 1570.1 4060.9 1642.9V1570.1C4060.9 1541.5 4038.8 1519.4 4010.2 1519.4C3982.9 1519.4 3960.8 1542.8 3960.8 1570.1V2153.8ZM4962.07 2212.3C5080.37 2212.3 5158.37 2157.7 5205.17 2096.6V2157.7C5205.17 2183.7 5224.67 2204.5 5253.27 2204.5C5280.57 2204.5 5301.37 2183.7 5301.37 2155.1V1787.2C5301.37 1701.4 5277.97 1636.4 5232.47 1590.9C5183.07 1541.5 5110.27 1516.8 5015.37 1516.8C4929.57 1516.8 4861.97 1533.7 4795.67 1562.3C4782.67 1567.5 4768.37 1583.1 4768.37 1603.9C4768.37 1627.3 4789.17 1646.8 4812.57 1646.8C4817.77 1646.8 4824.27 1645.5 4830.77 1642.9C4880.17 1620.8 4937.37 1605.2 5004.97 1605.2C5131.07 1605.2 5205.17 1667.6 5205.17 1788.5V1811.9C5145.37 1795 5084.27 1783.3 4998.47 1783.3C4828.17 1783.3 4711.17 1858.7 4711.17 2000.4V2003C4711.17 2140.8 4837.27 2212.3 4962.07 2212.3ZM4981.57 2133C4890.57 2133 4812.57 2083.6 4812.57 1999.1V1996.5C4812.57 1912 4882.77 1857.4 5008.87 1857.4C5090.77 1857.4 5157.07 1871.7 5206.47 1886V1951C5206.47 2057.6 5105.07 2133 4981.57 2133ZM5816.89 2165.5L6070.39 1593.5C6072.99 1587 6075.59 1577.9 6075.59 1568.8C6075.59 1541.5 6053.49 1519.4 6026.19 1519.4C6000.19 1519.4 5985.89 1536.3 5979.39 1555.8L5758.39 2083.6L5541.29 1558.4C5533.49 1536.3 5519.19 1519.4 5490.59 1519.4C5461.99 1519.4 5439.89 1542.8 5439.89 1568.8C5439.89 1577.9 5443.79 1587 5446.39 1596.1L5698.59 2165.5C5710.29 2191.5 5728.49 2208.4 5755.79 2208.4H5760.99C5788.29 2208.4 5805.19 2191.5 5816.89 2165.5ZM6249.76 1332.2C6249.76 1363.4 6275.76 1385.5 6308.26 1385.5C6342.06 1385.5 6368.06 1363.4 6368.06 1332.2V1315.3C6368.06 1282.8 6342.06 1262 6308.26 1262C6275.76 1262 6249.76 1282.8 6249.76 1315.3V1332.2ZM6258.86 2153.8C6258.86 2182.4 6280.96 2204.5 6309.56 2204.5C6338.16 2204.5 6358.96 2182.4 6358.96 2153.8V1570.1C6358.96 1541.5 6336.86 1519.4 6308.26 1519.4C6280.96 1519.4 6258.86 1542.8 6258.86 1570.1V2153.8ZM6898.07 2213.6C7100.87 2213.6 7250.37 2052.4 7250.37 1862.6V1860C7250.37 1670.2 7102.17 1511.6 6900.67 1511.6C6697.87 1511.6 6549.67 1672.8 6549.67 1862.6V1865.2C6549.67 2055 6696.57 2213.6 6898.07 2213.6ZM6900.67 2123.9C6758.97 2123.9 6652.37 2006.9 6652.37 1862.6V1860C6652.37 1718.3 6752.47 1600 6898.07 1600C7039.77 1600 7147.67 1718.3 7147.67 1862.6V1865.2C7147.67 2006.9 7046.27 2123.9 6900.67 2123.9Z" fill="black"/>
</g>
<defs>
<linearGradient id="paint0_linear_124_2" x1="1864.64" y1="1881.52" x2="1864.64" y2="3513.89" gradientUnits="userSpaceOnUse">
<stop stop-color="#EC1EC6"/>
<stop offset="1" stop-color="#1D8FF9"/>
</linearGradient>
<clipPath id="clip0_124_2">
<rect width="9292" height="3600" fill="white"/>
</clipPath>
</defs>
</svg>
