<?xml version="1.0" encoding="UTF-8"?>
<svg width="3671px" height="1424px" viewBox="0 0 3671 1424" version="1.1" xmlns="http://www.w3.org/2000/svg" xmlns:xlink="http://www.w3.org/1999/xlink">
    <!-- Generator: Sketch 63.1 (92452) - https://sketch.com -->
    <title>Web | Header  | Underlined</title>
    <desc>Created with Sketch.</desc>
    <defs>
        <linearGradient x1="85.0995%" y1="23.7603521%" x2="15.5120713%" y2="76.010278%" id="linearGradient-1">
            <stop stop-color="#0A87F5" offset="0%"></stop>
            <stop stop-color="#DC1EB9" offset="100%"></stop>
        </linearGradient>
        <path d="M265,362.5 C275.5,362.5 284,354 284,343 L284,199.5 C284,138 247.5,96 185,96 C140.5,96 113.5,118.5 96.5,146.5 L96.5,118.5 C96.5,107.5 88,99 77,99 C66.5,99 58,108 58,118.5 L58,343 C58,354 66.5,362.5 77.5,362.5 C88.5,362.5 96.5,354 96.5,343 L96.5,212 C96.5,163.5 129.5,131 174,131 C219.5,131 245.5,161 245.5,209 L245.5,343 C245.5,354 254,362.5 265,362.5 Z M463,365.5 C508.5,365.5 538.5,344.5 556.5,321 L556.5,344.5 C556.5,354.5 564,362.5 575,362.5 C585.5,362.5 593.5,354.5 593.5,343.5 L593.5,202 C593.5,169 584.5,144 567,126.5 C548,107.5 520,98 483.5,98 C450.5,98 424.5,104.5 399,115.5 C394,117.5 388.5,123.5 388.5,131.5 C388.5,140.5 396.5,148 405.5,148 C407.5,148 410,147.5 412.5,146.5 C431.5,138 453.5,132 479.5,132 C528,132 556.5,156 556.5,202.5 L556.5,211.5 C533.5,205 510,200.5 477,200.5 C411.5,200.5 366.5,229.5 366.5,284 L366.5,285 C366.5,338 415,365.5 463,365.5 Z M470.5,335 C435.5,335 405.5,316 405.5,283.5 L405.5,282.5 C405.5,250 432.5,229 481,229 C512.5,229 538,234.5 557,240 L557,265 C557,306 518,335 470.5,335 Z M790,364 C800.5,364 807,357.5 811.5,347.5 L909,127.5 C910,125 911,121.5 911,118 C911,107.5 902.5,99 892,99 C882,99 876.5,105.5 874,113 L789,316 L705.5,114 C702.5,105.5 697,99 686,99 C675,99 666.5,108 666.5,118 C666.5,121.5 668,125 669,128.5 L766,347.5 C770.5,357.5 777.5,364 788,364 L790,364 Z M1101,366 C1144.5,366 1174,349 1198.5,324.5 C1201.5,321.5 1203.5,317 1203.5,312.5 C1203.5,303.5 1195.5,295 1186,295 C1181,295 1177.5,297.5 1175,300 C1156,318 1132.5,331.5 1103,331.5 C1049,331.5 1008,287 1008,231 L1008,230 C1008,174.5 1048,130 1100.5,130 C1131.5,130 1152.5,144 1171,161 C1174,163.5 1178.5,165.5 1183.5,165.5 C1193.5,165.5 1202,157.5 1202,147 C1202,141 1199,136 1196,133.5 C1173,112.5 1144,96 1101,96 C1025.5,96 968.5,158 968.5,231 L968.5,232 C968.5,304.5 1025.5,366 1101,366 Z M1400.5,366 C1478.5,366 1536,304 1536,231 L1536,230 C1536,157 1479,96 1401.5,96 C1323.5,96 1266.5,158 1266.5,231 L1266.5,232 C1266.5,305 1323,366 1400.5,366 Z M1401.5,331.5 C1347,331.5 1306,286.5 1306,231 L1306,230 C1306,175.5 1344.5,130 1400.5,130 C1455,130 1496.5,175.5 1496.5,231 L1496.5,232 C1496.5,286.5 1457.5,331.5 1401.5,331.5 Z M1648,47.5 C1661,47.5 1671,39 1671,27 L1671,20.5 C1671,8 1661,0 1648,0 C1635.5,0 1625.5,8 1625.5,20.5 L1625.5,27 C1625.5,39 1635.5,47.5 1648,47.5 Z M1648.5,362.5 C1659.5,362.5 1667.5,354 1667.5,343 L1667.5,118.5 C1667.5,107.5 1659,99 1648,99 C1637.5,99 1629,108 1629,118.5 L1629,343 C1629,354 1637.5,362.5 1648.5,362.5 Z M1984,362.5 C1994.5,362.5 2003,354 2003,343 L2003,199.5 C2003,138 1966.5,96 1904,96 C1859.5,96 1832.5,118.5 1815.5,146.5 L1815.5,118.5 C1815.5,107.5 1807,99 1796,99 C1785.5,99 1777,108 1777,118.5 L1777,343 C1777,354 1785.5,362.5 1796.5,362.5 C1807.5,362.5 1815.5,354 1815.5,343 L1815.5,212 C1815.5,163.5 1848.5,131 1893,131 C1938.5,131 1964.5,161 1964.5,209 L1964.5,343 C1964.5,354 1973,362.5 1984,362.5 Z" id="path-2"></path>
    </defs>
    <g id="Web-|-Header--|-Underlined" stroke="none" stroke-width="1" fill="none" fill-rule="evenodd">
        <g id="N" transform="translate(200.000000, 200.000000)">
            <rect id="Background" stroke="#F0F0F0" stroke-width="50" fill="#FFFFFF" x="0" y="0" width="1024" height="1024" rx="512"></rect>
            <path d="M673.125,290 C686.11875,290 696.66225,301.026125 696.871821,313.981822 L696.875,314.375 L696.875,488.125 C696.875,488.401142 697.098858,488.625 697.375,488.625 L734,488.625 L734,488.625 C747.254834,488.625 758,499.370166 758,512.625 C758,525.879834 747.254834,536.625 734,536.625 L697.375,536.625 C697.098858,536.625 696.875,536.848858 696.875,537.125 L696.875,709.375 L696.875,709.375 C696.875,722.36875 687.686562,732.299688 674.767619,732.497007 L674.375,732.5 L671.875,732.5 C661.416016,732.5 653.985138,726.443787 646.601574,717.908311 L646.25,717.5 L504.95914,536.816999 C504.864376,536.695815 504.719104,536.625 504.565267,536.625 L375.5,536.625 C375.223858,536.625 375,536.848858 375,537.125 L375,709.375 L375,709.375 C375,722.36875 364.586437,733.524813 351.036555,733.75 L350.625,733.75 C337.63125,733.75 327.08775,722.723875 326.878179,709.768178 L326.875,709.375 L326.875,537.125 C326.875,536.848858 326.651142,536.625 326.375,536.625 L290,536.625 L290,536.625 C276.745166,536.625 266,525.879834 266,512.625 C266,499.370166 276.745166,488.625 290,488.625 L326.375,488.625 C326.651142,488.625 326.875,488.401142 326.875,488.125 L326.875,315.625 L326.875,315.625 C326.875,302.63125 337.901125,291.475188 350.856822,291.253366 L351.25,291.25 L358.125,291.25 C369.028846,291.25 375.822781,296.534172 382.490257,304.826256 L383.125,305.625 L526.470859,488.433525 C526.565639,488.554399 526.710718,488.625 526.86432,488.625 L648.25,488.625 C648.526142,488.625 648.75,488.401142 648.75,488.125 L648.75,314.375 L648.75,314.375 C648.75,301.38125 659.163562,290.225188 672.713445,290 L673.125,290 Z M648.25,536.625 L565.287451,536.625 C565.011308,536.625 564.787451,536.848858 564.787451,537.125 C564.787451,537.236864 564.824963,537.345497 564.893989,537.433525 L647.856538,643.235569 C648.026932,643.452872 648.341222,643.4909 648.558525,643.320506 C648.679399,643.225725 648.75,643.080647 648.75,642.927044 L648.75,537.125 C648.75,536.848858 648.526142,536.625 648.25,536.625 Z M375,372.076085 L375,488.125 C375,488.401142 375.223858,488.625 375.5,488.625 L466.248285,488.625 C466.524427,488.625 466.748285,488.401142 466.748285,488.125 C466.748285,488.013364 466.710925,487.904939 466.642157,487.816999 L375.893872,371.768084 C375.723768,371.550554 375.409528,371.512108 375.191999,371.682213 C375.070815,371.776976 375,371.922249 375,372.076085 Z" id="Shape" fill="url(#linearGradient-1)" fill-rule="nonzero"></path>
        </g>
        <g id="N" transform="translate(200.000000, 200.000000)">
            <rect id="Background" stroke="#F0F0F0" stroke-width="50" fill="#FFFFFF" x="0" y="0" width="1024" height="1024" rx="512"></rect>
            <path d="M673.125,290 C686.11875,290 696.66225,301.026125 696.871821,313.981822 L696.875,314.375 L696.875,488.125 C696.875,488.401142 697.098858,488.625 697.375,488.625 L734,488.625 L734,488.625 C747.254834,488.625 758,499.370166 758,512.625 C758,525.879834 747.254834,536.625 734,536.625 L697.375,536.625 C697.098858,536.625 696.875,536.848858 696.875,537.125 L696.875,709.375 L696.875,709.375 C696.875,722.36875 687.686562,732.299688 674.767619,732.497007 L674.375,732.5 L671.875,732.5 C661.416016,732.5 653.985138,726.443787 646.601574,717.908311 L646.25,717.5 L504.95914,536.816999 C504.864376,536.695815 504.719104,536.625 504.565267,536.625 L375.5,536.625 C375.223858,536.625 375,536.848858 375,537.125 L375,709.375 L375,709.375 C375,722.36875 364.586437,733.524813 351.036555,733.75 L350.625,733.75 C337.63125,733.75 327.08775,722.723875 326.878179,709.768178 L326.875,709.375 L326.875,537.125 C326.875,536.848858 326.651142,536.625 326.375,536.625 L290,536.625 L290,536.625 C276.745166,536.625 266,525.879834 266,512.625 C266,499.370166 276.745166,488.625 290,488.625 L326.375,488.625 C326.651142,488.625 326.875,488.401142 326.875,488.125 L326.875,315.625 L326.875,315.625 C326.875,302.63125 337.901125,291.475188 350.856822,291.253366 L351.25,291.25 L358.125,291.25 C369.028846,291.25 375.822781,296.534172 382.490257,304.826256 L383.125,305.625 L526.470859,488.433525 C526.565639,488.554399 526.710718,488.625 526.86432,488.625 L648.25,488.625 C648.526142,488.625 648.75,488.401142 648.75,488.125 L648.75,314.375 L648.75,314.375 C648.75,301.38125 659.163562,290.225188 672.713445,290 L673.125,290 Z M648.25,536.625 L565.287451,536.625 C565.011308,536.625 564.787451,536.848858 564.787451,537.125 C564.787451,537.236864 564.824963,537.345497 564.893989,537.433525 L647.856538,643.235569 C648.026932,643.452872 648.341222,643.4909 648.558525,643.320506 C648.679399,643.225725 648.75,643.080647 648.75,642.927044 L648.75,537.125 C648.75,536.848858 648.526142,536.625 648.25,536.625 Z M375,372.076085 L375,488.125 C375,488.401142 375.223858,488.625 375.5,488.625 L466.248285,488.625 C466.524427,488.625 466.748285,488.401142 466.748285,488.125 C466.748285,488.013364 466.710925,487.904939 466.642157,487.816999 L375.893872,371.768084 C375.723768,371.550554 375.409528,371.512108 375.191999,371.682213 C375.070815,371.776976 375,371.922249 375,372.076085 Z" id="Shape" fill="url(#linearGradient-1)" fill-rule="nonzero"></path>
            <g id="Group" transform="translate(1209.000000, 256.000000)">
                <rect id="Rectangle" fill="#F0F0F0" x="0" y="460" width="2062" height="50" rx="25"></rect>
                <g id="navcoin" fill-rule="nonzero">
                    <use fill="#000000" xlink:href="#path-2"></use>
                    <use fill="#2D2D2D" xlink:href="#path-2"></use>
                </g>
            </g>
        </g>
    </g>
</svg>