<?xml version="1.0" encoding="UTF-8"?>
<svg width="3671px" height="1424px" viewBox="0 0 3671 1424" version="1.1" xmlns="http://www.w3.org/2000/svg" xmlns:xlink="http://www.w3.org/1999/xlink">
    <!-- Generator: Sketch 63.1 (92452) - https://sketch.com -->
    <title>Web | Header  | Underlined</title>
    <desc>Created with Sketch.</desc>
    <defs>
        <linearGradient x1="85.0995%" y1="23.7603521%" x2="15.5120713%" y2="76.010278%" id="linearGradient-1">
            <stop stop-color="#0A87F5" offset="0%"></stop>
            <stop stop-color="#DC1EB9" offset="100%"></stop>
        </linearGradient>
        <path d="M265,402.5 C275.5,402.5 284,394 284,383 L284,239.5 C284,178 247.5,136 185,136 C140.5,136 113.5,158.5 96.5,186.5 L96.5,158.5 C96.5,147.5 88,139 77,139 C66.5,139 58,148 58,158.5 L58,383 C58,394 66.5,402.5 77.5,402.5 C88.5,402.5 96.5,394 96.5,383 L96.5,252 C96.5,203.5 129.5,171 174,171 C219.5,171 245.5,201 245.5,249 L245.5,383 C245.5,394 254,402.5 265,402.5 Z M463,405.5 C508.5,405.5 538.5,384.5 556.5,361 L556.5,384.5 C556.5,394.5 564,402.5 575,402.5 C585.5,402.5 593.5,394.5 593.5,383.5 L593.5,242 C593.5,209 584.5,184 567,166.5 C548,147.5 520,138 483.5,138 C450.5,138 424.5,144.5 399,155.5 C394,157.5 388.5,163.5 388.5,171.5 C388.5,180.5 396.5,188 405.5,188 C407.5,188 410,187.5 412.5,186.5 C431.5,178 453.5,172 479.5,172 C528,172 556.5,196 556.5,242.5 L556.5,251.5 C533.5,245 510,240.5 477,240.5 C411.5,240.5 366.5,269.5 366.5,324 L366.5,325 C366.5,378 415,405.5 463,405.5 Z M470.5,375 C435.5,375 405.5,356 405.5,323.5 L405.5,322.5 C405.5,290 432.5,269 481,269 C512.5,269 538,274.5 557,280 L557,305 C557,346 518,375 470.5,375 Z M790,404 C800.5,404 807,397.5 811.5,387.5 L909,167.5 C910,165 911,161.5 911,158 C911,147.5 902.5,139 892,139 C882,139 876.5,145.5 874,153 L789,356 L705.5,154 C702.5,145.5 697,139 686,139 C675,139 666.5,148 666.5,158 C666.5,161.5 668,165 669,168.5 L766,387.5 C770.5,397.5 777.5,404 788,404 L790,404 Z M1101,406 C1144.5,406 1174,389 1198.5,364.5 C1201.5,361.5 1203.5,357 1203.5,352.5 C1203.5,343.5 1195.5,335 1186,335 C1181,335 1177.5,337.5 1175,340 C1156,358 1132.5,371.5 1103,371.5 C1049,371.5 1008,327 1008,271 L1008,270 C1008,214.5 1048,170 1100.5,170 C1131.5,170 1152.5,184 1171,201 C1174,203.5 1178.5,205.5 1183.5,205.5 C1193.5,205.5 1202,197.5 1202,187 C1202,181 1199,176 1196,173.5 C1173,152.5 1144,136 1101,136 C1025.5,136 968.5,198 968.5,271 L968.5,272 C968.5,344.5 1025.5,406 1101,406 Z M1400.5,406 C1478.5,406 1536,344 1536,271 L1536,270 C1536,197 1479,136 1401.5,136 C1323.5,136 1266.5,198 1266.5,271 L1266.5,272 C1266.5,345 1323,406 1400.5,406 Z M1401.5,371.5 C1347,371.5 1306,326.5 1306,271 L1306,270 C1306,215.5 1344.5,170 1400.5,170 C1455,170 1496.5,215.5 1496.5,271 L1496.5,272 C1496.5,326.5 1457.5,371.5 1401.5,371.5 Z M1648,87.5 C1661,87.5 1671,79 1671,67 L1671,60.5 C1671,48 1661,40 1648,40 C1635.5,40 1625.5,48 1625.5,60.5 L1625.5,67 C1625.5,79 1635.5,87.5 1648,87.5 Z M1648.5,402.5 C1659.5,402.5 1667.5,394 1667.5,383 L1667.5,158.5 C1667.5,147.5 1659,139 1648,139 C1637.5,139 1629,148 1629,158.5 L1629,383 C1629,394 1637.5,402.5 1648.5,402.5 Z M1984,402.5 C1994.5,402.5 2003,394 2003,383 L2003,239.5 C2003,178 1966.5,136 1904,136 C1859.5,136 1832.5,158.5 1815.5,186.5 L1815.5,158.5 C1815.5,147.5 1807,139 1796,139 C1785.5,139 1777,148 1777,158.5 L1777,383 C1777,394 1785.5,402.5 1796.5,402.5 C1807.5,402.5 1815.5,394 1815.5,383 L1815.5,252 C1815.5,203.5 1848.5,171 1893,171 C1938.5,171 1964.5,201 1964.5,249 L1964.5,383 C1964.5,394 1973,402.5 1984,402.5 Z" id="path-2"></path>
    </defs>
    <g id="Web-|-Header--|-Underlined" stroke="none" stroke-width="1" fill="none" fill-rule="evenodd">
        <g id="N" transform="translate(200.000000, 200.000000)">
            <rect id="Background" stroke="#F0F0F0" stroke-width="50" fill="#FFFFFF" x="0" y="0" width="1024" height="1024" rx="512"></rect>
            <path d="M673.125,290 C686.11875,290 696.66225,301.026125 696.871821,313.981822 L696.875,314.375 L696.875,488.125 C696.875,488.401142 697.098858,488.625 697.375,488.625 L734,488.625 L734,488.625 C747.254834,488.625 758,499.370166 758,512.625 C758,525.879834 747.254834,536.625 734,536.625 L697.375,536.625 C697.098858,536.625 696.875,536.848858 696.875,537.125 L696.875,709.375 L696.875,709.375 C696.875,722.36875 687.686562,732.299688 674.767619,732.497007 L674.375,732.5 L671.875,732.5 C661.416016,732.5 653.985138,726.443787 646.601574,717.908311 L646.25,717.5 L504.95914,536.816999 C504.864376,536.695815 504.719104,536.625 504.565267,536.625 L375.5,536.625 C375.223858,536.625 375,536.848858 375,537.125 L375,709.375 L375,709.375 C375,722.36875 364.586437,733.524813 351.036555,733.75 L350.625,733.75 C337.63125,733.75 327.08775,722.723875 326.878179,709.768178 L326.875,709.375 L326.875,537.125 C326.875,536.848858 326.651142,536.625 326.375,536.625 L290,536.625 L290,536.625 C276.745166,536.625 266,525.879834 266,512.625 C266,499.370166 276.745166,488.625 290,488.625 L326.375,488.625 C326.651142,488.625 326.875,488.401142 326.875,488.125 L326.875,315.625 L326.875,315.625 C326.875,302.63125 337.901125,291.475188 350.856822,291.253366 L351.25,291.25 L358.125,291.25 C369.028846,291.25 375.822781,296.534172 382.490257,304.826256 L383.125,305.625 L526.470859,488.433525 C526.565639,488.554399 526.710718,488.625 526.86432,488.625 L648.25,488.625 C648.526142,488.625 648.75,488.401142 648.75,488.125 L648.75,314.375 L648.75,314.375 C648.75,301.38125 659.163562,290.225188 672.713445,290 L673.125,290 Z M648.25,536.625 L565.287451,536.625 C565.011308,536.625 564.787451,536.848858 564.787451,537.125 C564.787451,537.236864 564.824963,537.345497 564.893989,537.433525 L647.856538,643.235569 C648.026932,643.452872 648.341222,643.4909 648.558525,643.320506 C648.679399,643.225725 648.75,643.080647 648.75,642.927044 L648.75,537.125 C648.75,536.848858 648.526142,536.625 648.25,536.625 Z M375,372.076085 L375,488.125 C375,488.401142 375.223858,488.625 375.5,488.625 L466.248285,488.625 C466.524427,488.625 466.748285,488.401142 466.748285,488.125 C466.748285,488.013364 466.710925,487.904939 466.642157,487.816999 L375.893872,371.768084 C375.723768,371.550554 375.409528,371.512108 375.191999,371.682213 C375.070815,371.776976 375,371.922249 375,372.076085 Z" id="Shape" fill="url(#linearGradient-1)" fill-rule="nonzero"></path>
            <g id="Group" transform="translate(1209.000000, 216.000000)">
                <rect id="Rectangle" fill="#F0F0F0" x="0" y="500" width="2062" height="50" rx="25"></rect>
                <g id="navcoin" fill-rule="nonzero">
                    <use fill="#000000" xlink:href="#path-2"></use>
                    <use fill="#2D2D2D" xlink:href="#path-2"></use>
                </g>
            </g>
        </g>
    </g>
</svg>