<?xml version="1.0" encoding="UTF-8"?>
<svg width="1024px" height="1024px" viewBox="0 0 1024 1024" version="1.1" xmlns="http://www.w3.org/2000/svg" xmlns:xlink="http://www.w3.org/1999/xlink">
    <!-- Generator: Sketch 63.1 (92452) - https://sketch.com -->
    <title>N</title>
    <desc>Created with Sketch.</desc>
    <defs>
        <linearGradient x1="85.0995%" y1="23.7603521%" x2="15.5120713%" y2="76.010278%" id="linearGradient-1">
            <stop stop-color="#0A87F5" offset="0%"></stop>
            <stop stop-color="#DC1EB9" offset="100%"></stop>
        </linearGradient>
        <linearGradient x1="85.0995%" y1="42.0948751%" x2="15.5120713%" y2="57.8360235%" id="linearGradient-2">
            <stop stop-color="#0A87F5" offset="0%"></stop>
            <stop stop-color="#DC1EB9" offset="100%"></stop>
        </linearGradient>
    </defs>
    <g id="N" stroke="none" stroke-width="1" fill="none" fill-rule="evenodd">
        <rect fill="#FFFFFF" x="0" y="0" width="1024" height="1024"></rect>
        <rect id="Background" x="0" y="0" width="1024" height="1024"></rect>
        <g id="Group" transform="translate(266.000000, 178.000000)" fill-rule="nonzero">
            <path d="M407.125,0 C420.11875,0 430.66225,11.026125 430.871821,23.9818219 L430.875,24.375 L430.875,198.125 C430.875,198.401142 431.098858,198.625 431.375,198.625 L468,198.625 L468,198.625 C481.254834,198.625 492,209.370166 492,222.625 C492,235.879834 481.254834,246.625 468,246.625 L431.375,246.625 C431.098858,246.625 430.875,246.848858 430.875,247.125 L430.875,419.375 L430.875,419.375 C430.875,432.36875 421.686562,442.299688 408.767619,442.497007 L408.375,442.5 L405.875,442.5 C395.416016,442.5 387.985138,436.443787 380.601574,427.908311 L380.25,427.5 L238.95914,246.816999 C238.864376,246.695815 238.719104,246.625 238.565267,246.625 L109.5,246.625 C109.223858,246.625 109,246.848858 109,247.125 L109,419.375 L109,419.375 C109,432.36875 98.5864375,443.524813 85.036555,443.75 L84.625,443.75 C71.63125,443.75 61.08775,432.723875 60.8781794,419.768178 L60.875,419.375 L60.875,247.125 C60.875,246.848858 60.6511424,246.625 60.375,246.625 L24,246.625 L24,246.625 C10.745166,246.625 0,235.879834 0,222.625 C0,209.370166 10.745166,198.625 24,198.625 L60.375,198.625 C60.6511424,198.625 60.875,198.401142 60.875,198.125 L60.875,25.625 L60.875,25.625 C60.875,12.63125 71.901125,1.4751875 84.8568219,1.25336563 L85.25,1.25 L92.125,1.25 C103.028846,1.25 109.822781,6.5341716 116.490257,14.8262563 L117.125,15.625 L260.470859,198.433525 C260.565639,198.554399 260.710718,198.625 260.86432,198.625 L382.25,198.625 C382.526142,198.625 382.75,198.401142 382.75,198.125 L382.75,24.375 L382.75,24.375 C382.75,11.38125 393.163562,0.2251875 406.713445,0 L407.125,0 Z M382.25,246.625 L299.287451,246.625 C299.011308,246.625 298.787451,246.848858 298.787451,247.125 C298.787451,247.236864 298.824963,247.345497 298.893989,247.433525 L381.856538,353.235569 C382.026932,353.452872 382.341222,353.4909 382.558525,353.320506 C382.679399,353.225725 382.75,353.080647 382.75,352.927044 L382.75,247.125 C382.75,246.848858 382.526142,246.625 382.25,246.625 Z M109,82.076085 L109,198.125 C109,198.401142 109.223858,198.625 109.5,198.625 L200.248285,198.625 C200.524427,198.625 200.748285,198.401142 200.748285,198.125 C200.748285,198.013364 200.710925,197.904939 200.642157,197.816999 L109.893872,81.7680837 C109.723768,81.5505542 109.409528,81.5121085 109.191999,81.6822129 C109.070815,81.7769764 109,81.9222488 109,82.076085 Z" id="Shape" fill="url(#linearGradient-1)"></path>
            <text id="nav" fill="url(#linearGradient-2)" font-family="GothamRounded-Book, Gotham Rounded" font-size="200" font-weight="300" letter-spacing="17.1428571">
                <tspan x="49.0357143" y="654">nav</tspan>
            </text>
        </g>
    </g>
</svg>